HIERARCHY
ROOT Hips
{
  OFFSET -306.21 86.0442 287.205
  CHANNELS 6 Xposition Yposition Zposition Zrotation Xrotation Yrotation
  JOINT ToSpine
  {
    OFFSET -0.0105055 1.38907 -7.13956
    CHANNELS 3 Zrotation Xrotation Yrotation
    JOINT Spine
    {
      OFFSET 0.0105055 10 1
      CHANNELS 3 Zrotation Xrotation Yrotation
      JOINT Spine1
      {
        OFFSET 0 12 1.60637
        CHANNELS 3 Zrotation Xrotation Yrotation
        JOINT Neck
        {
          OFFSET 0 27 2.26658
          CHANNELS 3 Zrotation Xrotation Yrotation
          JOINT Head
          {
            OFFSET 0 9 2.12705
            CHANNELS 3 Zrotation Xrotation Yrotation
            End Site
            {
              OFFSET 0 11 2
            }
          }
        }
        JOINT LeftShoulder
        {
          OFFSET 8 19.6109 2.86452
          CHANNELS 3 Zrotation Xrotation Yrotation
          JOINT LeftArm
          {
            OFFSET 12 1 0.681055
            CHANNELS 3 Zrotation Xrotation Yrotation
            JOINT LeftForeArm
            {
              OFFSET 19 0 -1.52608
              CHANNELS 3 Zrotation Xrotation Yrotation
              JOINT LeftHand
              {
                OFFSET 23 0 0
                CHANNELS 3 Zrotation Xrotation Yrotation
                End Site
                {
                  OFFSET 10 0 0
                }
              }
            }
          }
        }
        JOINT RightShoulder
        {
          OFFSET -8 19.6109 2.86452
          CHANNELS 3 Zrotation Xrotation Yrotation
          JOINT RightArm
          {
            OFFSET -12 1 0.681055
            CHANNELS 3 Zrotation Xrotation Yrotation
            JOINT RightForeArm
            {
              OFFSET -19 0 -1.52608
              CHANNELS 3 Zrotation Xrotation Yrotation
              JOINT RightHand
              {
                OFFSET -23 0 0
                CHANNELS 3 Zrotation Xrotation Yrotation
                End Site
                {
                  OFFSET -10 0 0
                }
              }
            }
          }
        }
      }
    }
  }
  JOINT LeftUpLeg
  {
    OFFSET 9 -7.17245 0
    CHANNELS 3 Zrotation Xrotation Yrotation
    JOINT LeftLeg
    {
      OFFSET 0 -44.1113 0
      CHANNELS 3 Zrotation Xrotation Yrotation
      JOINT LeftFoot
      {
        OFFSET 0 -36.1829 0
        CHANNELS 3 Zrotation Xrotation Yrotation
        JOINT LeftToeBase
        {
          OFFSET 0 -4.84184 13
          CHANNELS 3 Zrotation Xrotation Yrotation
          End Site
          {
            OFFSET 0 1 6
          }
        }
      }
    }
  }
  JOINT RightUpLeg
  {
    OFFSET -9 -7.17245 0
    CHANNELS 3 Zrotation Xrotation Yrotation
    JOINT RightLeg
    {
      OFFSET 0 -44.0551 0
      CHANNELS 3 Zrotation Xrotation Yrotation
      JOINT RightFoot
      {
        OFFSET 0 -36.1469 0
        CHANNELS 3 Zrotation Xrotation Yrotation
        JOINT RightToeBase
        {
          OFFSET 0 -4.92256 13
          CHANNELS 3 Zrotation Xrotation Yrotation
          End Site
          {
            OFFSET 0 1 6
          }
        }
      }
    }
  }
}
MOTION
Frames:	15
Frame Time:	0.0333333
78.9447 89.8117 -121.589 -6.32387 5.37726 141.299 0 0 0 -3.4793 2.73576 2.33743 -11.5853 8.96717 5.35304 10.9706 -9.7517 -4.47187 -0.0591931 1.53402 -1.93105 -34.2873 3.63143 -5.48146 -29.7204 18.924 -8.3626 46.4131 -10.9307 -100.231 -7.9152 0.263425 -3.80625 27.102 5.53306 13.0457 55.6457 2.74189 -6.84442 -18.5074 3.48083 79.7195 7.56102 0.399508 6.04041 -9.72259 -27.3621 7.99383 1.84792e-006 58.3011 -16.749 20.4964 -20.3966 3.72577 0.923307 -10.7468 -1.41756 -8.78949 -2.07661 -7.22525 180 88.2853 172.152 -35.4918 -8.37681 -2.68507 4.20766 -15.8107 -3.28865 
83.5376 90.467 -126.58 -5.5994 3.86164 139.996 0 0 0 -2.31479 3.12534 0.228209 -10.7615 5.48416 2.60656 10.1796 -7.42727 -2.05248 -0.551409 1.41269 0.52048 -32.556 3.48092 -5.49838 -25.2243 19.1024 -18.8858 40.7483 -10.4712 -101.911 -6.51057 0.317797 -5.58307 26.4688 5.58088 13.4958 56.6601 2.60645 -15.2704 -10.7498 1.65565 81.3469 7.75485 0.461704 6.8041 -6.99042 -22.2359 10.8377 3.32677e-007 57.1765 -17.021 25.6149 -24.3213 5.60904 0.800855 -11.083 -0.443603 -7.40854 -15.5685 -4.71058 -180 83.5368 171.405 -37.2943 -9.70309 -3.2813 4.3912 -16.6223 -3.9376 
88.7414 92.3017 -131.527 -3.32767 4.18484 139.794 0 0 0 -4.54022 5.121 -1.4999 -5.64394 4.64479 -0.593282 8.92312 -9.12051 0.820416 -0.876924 3.05198 2.9334 -28.8428 3.46683 -6.40196 -27.116 16.4099 -23.9685 37.6413 -11.3097 -104.267 0.452522 -0.0073189 -1.85319 24.4534 5.27418 13.5723 56.4444 3.66537 -20.0527 -11.2906 1.67022 81.694 6.19209 0.37078 6.84689 -3.9651 -13.5061 13.9528 -8.44929e-007 52.83 -17.9809 29.0431 -18.9788 4.95822 1.63839 -22.8607 -1.66133 -4.75102 -23.732 -2.75698 180 88.0217 168.148 -36.2885 -11.1471 -3.66327 3.97701 -14.8293 -2.08434 
94.2316 94.5168 -137.314 -0.404691 3.96688 137.949 0 0 0 -2.8256 7.03089 -3.36743 -4.6084 2.57053 -2.85563 8.99982 -8.86834 3.43341 -1.39604 3.73791 5.59034 -25.7774 3.32334 -6.87316 -28.7935 13.3731 -23.7519 36.4302 -12.8988 -106.828 10.8442 0.488383 5.14196 25.3602 5.70915 14.4598 53.4952 5.13087 -23.7857 -14.6114 2.76501 79.5163 6.17935 0.393183 7.27446 -1.13616 -3.87725 16.4541 -3.16803e-007 46.7074 -19.7304 25.6396 -13.0751 2.98765 2.03412 -30.2635 -3.16857 -0.043932 -27.7536 0.656087 5.65654e-007 79.8511 -16.4131 -34.395 -8.51216 -2.63894 4.19757 -15.8597 -4.47712 
99.9614 96.3752 -143.729 1.46293 3.06481 135.625 0 0 0 -1.1078 4.7288 -4.11893 -3.47093 3.88366 -3.81733 7.52247 -9.37995 5.17011 -1.84725 5.50688 7.00087 -24.914 3.34181 -7.20674 -29.3903 11.8422 -24.8872 36.2708 -12.344 -106.243 8.27462 0.0428911 0.592943 23.5487 5.38507 14.422 52.8148 4.92327 -25.414 -15.9855 4.18316 75.7142 7.02966 0.462675 7.52189 0.439643 5.18864 18.032 -5.15964e-008 38.8649 -22.2683 18.471 -6.74146 1.0974 2.15297 -33.6794 -3.82054 3.72979 -28.9359 3.46903 -2.51094e-006 63.4789 -14.4496 -35.8214 -4.61202 -1.49131 4.46796 -17.2927 -6.58136 
105.887 97.9349 -150.384 2.68511 1.95957 134.581 0 0 0 0.908187 1.98152 -4.91601 -2.72699 4.60569 -4.66611 6.45312 -9.77833 6.18579 -2.66477 8.34972 7.95181 -24.5372 3.36131 -7.39429 -30.1771 11.0286 -24.8047 37.1404 -12.3523 -105.772 -1.77758 0.0955452 -6.15291 21.6582 4.96349 14.0761 53.461 4.40652 -27.2975 -14.5275 5.28687 70.4254 5.98219 0.455337 8.69757 1.00461 13.531 13.7521 -1.11599 30.2586 -20.29 12.4192 0.320118 -0.0348301 2.10505 -31.6065 -3.02252 5.2284 -27.4565 3.09179 3.79362e-007 44.1407 -5.80893 -28.4984 -1.43494 -0.364424 3.93069 -14.7256 -4.58652 
111.925 98.0616 -157.18 1.95997 1.35193 134.187 0 0 0 1.73532 -1.75308 -5.33167 -3.16607 4.59779 -4.92984 6.07402 -9.80468 6.58506 -3.35239 10.4087 8.47598 -23.7082 3.24997 -7.31142 -32.3809 11.284 -25.4289 40.3184 -12.5725 -104.387 -8.42338 0.601774 -8.15804 20.4866 4.53455 13.2235 53.4964 3.05819 -29.9141 -11.5687 4.76819 67.8991 6.85255 0.481724 8.03287 -0.405954 18.5444 9.62895 -0.91036 26.6926 -16.8211 8.09761 2.3935 -0.169443 1.24855 -19.8634 1.60681 4.59099 -25.6046 -2.76927 -4.77171e-008 25.1879 4.51879 -26.5988 3.27575 0.774519 4.23812 -16.2869 -7.13532 
117.914 97.2386 -163.277 1.78213 1.84824 135.472 0 0 0 -1.85116 -5.02177 -5.97299 1.33636 6.70607 -6.23088 5.07753 -9.80898 6.60835 -3.24003 10.5846 8.25891 -24.1446 3.24931 -7.16226 -34.2152 12.3857 -27.4995 36.3285 -9.33127 -102.435 -6.29998 0.32895 -5.97191 20.4564 4.54795 13.2897 51.2633 1.2521 -31.9707 -9.83352 4.53355 65.4861 7.47588 0.514242 7.85891 -0.0688558 23.1411 10.2785 -0.508456 26.7775 -16.0307 8.16558 -2.24409 0.160201 1.21575 -18.5808 0.596036 4.06399 -23.6094 0.395424 2.28402 12.7539 -1.31387 -19.6947 3.36417 0.584121 4.05754 -15.3452 -5.87905 
123.366 95.6 -168.722 1.55579 3.21451 136.792 0 0 0 -4.84781 -5.36629 -6.47051 3.51397 6.58129 -6.91589 6.17655 -7.96225 5.82261 -3.8887 8.80407 8.03871 -24.6342 3.33414 -7.27439 -35.7288 12.9029 -28.7222 30.8363 -5.51988 -99.1534 -3.76754 0.195012 -5.92397 21.4054 4.95949 14.21 49.836 -0.725269 -33.03 -6.90396 3.88339 60.7803 6.54087 0.419205 7.32625 -0.788616 25.9283 9.17176 0.054856 29.8899 -13.2769 12.3625 -5.57816 0.604608 1.1899 -19.5158 2.01287 2.78819 -23.9755 -1.01767 2.80818 12.8484 -2.73766 -19.9715 2.21054 0.389257 4.02371 -15.2824 -7.41164 
128.15 94.5576 -173.522 2.08177 4.53179 137.546 0 0 0 -5.04159 -4.13238 -6.01998 3.32081 6.85353 -6.54434 7.91723 -8.50307 4.78656 -4.64625 8.93766 7.63401 -25.0301 3.47126 -7.57996 -36.2078 13.8796 -30.1788 27.8169 -2.57988 -94.8762 -4.19368 0.191477 -5.22612 22.3576 4.80234 13.1276 49.9 -1.20477 -30.3695 -4.8337 3.6182 53.2674 4.44883 0.260997 6.71162 0.392705 25.6172 10.5366 -4.54791e-007 37.4335 -11.2829 10.7074 -6.09462 0.571679 1.26043 -18.9434 0.374393 1.80856 -25.005 -7.91141 1.87754 20.5462 7.86352 -18.9335 14.5673 2.44184 4.76734 -19.7845 -10.9734 
132.697 93.0376 -177.904 4.98888 4.46887 137.978 0 0 0 -1.35159 -0.609003 -5.20934 2.71914 4.57864 -5.96456 7.35489 -5.47305 3.79929 -4.7644 5.23415 6.72308 -26.9551 3.62273 -7.41678 -37.2059 15.5707 -29.5312 30.5988 0.414025 -89.2999 -6.76635 0.280039 -4.7344 23.0217 5.05893 13.6343 50.2731 -2.5312 -28.5568 -4.14993 3.71105 48.2652 2.51531 0.127461 5.80093 5.00163 23.1275 11.9369 1.68907e-007 48.5467 -7.40016 12.4749 -5.92449 0.648095 1.31715 -21.7362 3.584 3.76061 -28.1037 -12.4609 -1.82431e-007 38.9932 9.6912 -24.1086 3.55779 0.759989 2.27627 -6.45909 -8.06608 
137.139 91.1964 -181.583 8.3738 2.00429 138.239 0 0 0 3.87576 0.0248347 -3.98176 2.07751 4.10466 -4.86739 4.68337 -7.54682 3.0695 -4.00901 5.23714 5.06567 -32.0269 3.7111 -6.22417 -36.2354 16.8232 -30.1903 34.3201 6.16164 -81.0647 -7.77518 0.110429 -1.62491 23.9311 4.4321 11.1089 50.245 -0.702097 -19.159 -6.44151 7.57958 40.5616 -2.04472 -0.112809 6.31504 12.8906 15.5128 12.5679 1.61989e-007 63.7605 -5.97064 15.0331 -12.0277 1.59276 1.51003 -22.8616 1.71512 9.76983 -28.0624 -10.0572 -3.52312e-008 47.6017 3.65459 -32.0909 -2.10324 -0.604962 3.45685 -12.4589 -8.41585 
140.619 90.8189 -184.839 9.60909 1.53419 139.804 0 0 0 2.83871 1.73872 -3.69389 5.67292 2.87073 -5.21472 2.98657 -5.10369 2.86876 -4.30247 2.65207 4.56835 -33.7256 4.0002 -6.53105 -41.3413 15.097 -25.2004 36.2408 16.1366 -69.2345 -10.3899 0.194099 -2.13464 23.6797 4.42815 11.2114 49.5359 5.19959 -7.84925 -2.65441 5.5825 25.4808 0.188624 0.00918651 5.57651 14.6133 4.61569 8.28261 1.54253e-006 75.4961 -6.43049 19.0555 -14.5259 2.4508 1.47972 -21.8371 0.413415 9.53235 -25.231 -14.5877 3.63978e-007 50.8597 4.95016 -35.1931 -6.8263 -2.16729 3.32471 -11.6587 -9.55587 
143.759 91.6591 -187.617 9.79479 2.40139 142.576 0 0 0 1.63735 2.79509 -3.72995 5.92083 2.62947 -5.25828 4.58502 -3.06207 1.25277 -5.3217 2.00394 3.72359 -32.2479 3.93537 -6.75022 -46.4901 13.0525 -22.1812 22.8669 22.1761 -48.1714 -6.26783 0.128476 -2.34619 26.4295 5.22757 12.4507 46.3933 7.01655 0.788345 1.64448 -3.15422 14.2717 3.09804 0.148466 5.48601 11.9879 -5.75749 1.77022 -8.72136e-008 79.6908 -5.12801 27.1079 -12.586 3.0457 1.60034 -23.4162 0.497976 8.29001 -20.5923 -18.9424 1.07026e-007 49.8065 3.82672 -34.8511 -11.4801 -3.61419 3.27396 -11.6656 -7.04463 
146.942 93.7134 -190.244 10.2291 2.91547 141.784 0 0 0 3.17469 4.23023 -1.73021 3.37165 1.83469 -2.58588 5.56844 -1.96304 -0.864006 -5.17794 2.77447 1.98283 -31.6756 3.89451 -6.79718 -44.1887 18.0212 -21.8602 6.43109 13.9142 -24.4228 -4.91133 0.0976538 -2.27677 27.0375 5.52427 13.0504 46.2027 4.46071 6.50817 2.55869 -7.40585 9.22726 5.32841 0.11691 2.51203 9.11489 -12.7754 -1.4118 -6.71157e-007 76.1775 2.71227 25.9817 -13.3758 3.09913 1.57414 -21.9902 -1.37075 8.83259 -14.2957 -21.0312 1.5168e-007 44.2193 7.18973 -38.0383 -7.55934 -2.60905 4.29318 -16.6028 -7.58568 
